<?xml version="1.0" encoding="utf-8"?>
<!-- Generator: Adobe Illustrator 22.0.1, SVG Export Plug-In . SVG Version: 6.00 Build 0)  -->
<svg version="1.1" id="Isolation_Mode" xmlns="http://www.w3.org/2000/svg" xmlns:xlink="http://www.w3.org/1999/xlink" x="0px"
	 y="0px" viewBox="0 0 203 148.7" style="enable-background:new 0 0 203 148.7;" xml:space="preserve">
<style type="text/css">
	.st0{fill:#FFDC7B;}
	.st1{fill:#E3F1FC;}
</style>
<g>
	<g>
		<ellipse transform="matrix(0.1615 -0.9869 0.9869 0.1615 -9.5462 117.4512)" class="st0" cx="64.3" cy="64.3" rx="26" ry="26"/>
		<g>
			<path class="st0" d="M64.3,28.4L64.3,28.4c-1.7,0-3.1-1.4-3.1-3.1V3.1c0-1.7,1.4-3.1,3.1-3.1l0,0c1.7,0,3.1,1.4,3.1,3.1v22.2
				C67.5,27,66.1,28.4,64.3,28.4z"/>
			<path class="st0" d="M64.3,128.7L64.3,128.7c-1.7,0-3.1-1.4-3.1-3.1v-22.2c0-1.7,1.4-3.1,3.1-3.1l0,0c1.7,0,3.1,1.4,3.1,3.1v22.2
				C67.5,127.3,66.1,128.7,64.3,128.7z"/>
		</g>
		<g>
			<path class="st0" d="M89.7,39L89.7,39c-1.2-1.2-1.2-3.2,0-4.4l15.7-15.7c1.2-1.2,3.2-1.2,4.4,0l0,0c1.2,1.2,1.2,3.2,0,4.4
				L94.1,39C92.9,40.2,91,40.2,89.7,39z"/>
			<path class="st0" d="M18.8,109.8L18.8,109.8c-1.2-1.2-1.2-3.2,0-4.4l15.7-15.7c1.2-1.2,3.2-1.2,4.4,0l0,0c1.2,1.2,1.2,3.2,0,4.4
				l-15.7,15.7C22,111.1,20.1,111.1,18.8,109.8z"/>
		</g>
		<g>
			<path class="st0" d="M100.3,64.3L100.3,64.3c0-1.7,1.4-3.1,3.1-3.1h22.2c1.7,0,3.1,1.4,3.1,3.1l0,0c0,1.7-1.4,3.1-3.1,3.1h-22.2
				C101.6,67.5,100.3,66.1,100.3,64.3z"/>
			<path class="st0" d="M0,64.3L0,64.3c0-1.7,1.4-3.1,3.1-3.1h22.2c1.7,0,3.1,1.4,3.1,3.1l0,0c0,1.7-1.4,3.1-3.1,3.1H3.1
				C1.4,67.5,0,66.1,0,64.3z"/>
		</g>
		<g>
			<path class="st0" d="M89.7,89.7L89.7,89.7c1.2-1.2,3.2-1.2,4.4,0l15.7,15.7c1.2,1.2,1.2,3.2,0,4.4l0,0c-1.2,1.2-3.2,1.2-4.4,0
				L89.7,94.1C88.5,92.9,88.5,91,89.7,89.7z"/>
			<path class="st0" d="M18.8,18.8L18.8,18.8c1.2-1.2,3.2-1.2,4.4,0L39,34.5c1.2,1.2,1.2,3.2,0,4.4l0,0c-1.2,1.2-3.2,1.2-4.4,0
				L18.8,23.3C17.6,22,17.6,20.1,18.8,18.8z"/>
		</g>
	</g>
	<path class="st1" d="M183.6,109.8c-0.1,0-0.2,0-0.2,0c1.5-3.6,2.4-7.5,2.4-11.6c0-16.2-13.1-29.3-29.3-29.3
		c-5.7,0-11.1,1.7-15.6,4.5c-6.1-14.9-20.7-25.3-37.8-25.3c-22.6,0-40.8,18.3-40.8,40.8c0,1.7,0.1,3.4,0.3,5c-0.1,0-0.2,0-0.3,0
		c-15.1,0-27.4,12.3-27.4,27.4s12.3,27.4,27.4,27.4h121.3c10.7,0,19.4-8.7,19.4-19.4C203,118.5,194.3,109.8,183.6,109.8z"/>
</g>
</svg>
