<svg xmlns="http://www.w3.org/2000/svg">
  <symbol id="shevron" viewBox="0 0 48 48"><path d="M47 16.1L26.4 36.7c-.7.7-1.4 1-2.4 1s-1.7-.3-2.4-1L1 16.1a3.3 3.3 0 0 1 0-4.8 3.3 3.3 0 0 1 4.8 0L24 29.5l18.2-18.2a3.3 3.3 0 0 1 4.8 0 3.4 3.4 0 0 1 0 4.8z"/></symbol>
  <symbol id="play" viewBox="0 0 48 48"><path d="M14.4 41.3V6.6l26.9 17.3-26.9 17.4zM46.8 22L13.2.4c-.7-.5-1.7-.5-2.4 0-.7.2-1.2 1-1.2 1.9v43.3c0 1 .5 1.7 1.2 2.2.5.2.7.2 1.2.2s1-.2 1.2-.5l33.6-21.7c.7-.5 1.2-1.2 1.2-1.9s-.5-1.6-1.2-1.9z"/></symbol>
  <symbol id="prev" viewBox="0 0 19 56"><path d="M19 56L4.7 28 19 0h-4.7L0 28l14.3 28H19z"/></symbol>
  <symbol id="next" viewBox="0 0 19 56"><path d="M0 56l14.3-28L0 0h4.7L19 28 4.7 56H0z"/></symbol>
  <symbol id="why1" viewBox="0 0 47 47"><path fill="#00b7e8" fill-rule="evenodd" d="M24.8 2.6a6 6 0 0 1-2.4.4c-.6 0-.6 0-.7.6a7.2 7.2 0 0 1-1.7 3 3.4 3.4 0 0 1-2.6 1.2h-3.6a16 16 0 0 1-1.7 0 .2.2 0 0 0-.2.1l-.5 3.3-.3 2.9a55 55 0 0 0-.3 7.1 60.3 60.3 0 0 0 1.3 9.8 19.4 19.4 0 0 0 2.2 5.3A24.6 24.6 0 0 0 19 42a1.2 1.2 0 0 0 .3.1l-.1.2-.7.3-1 .5a.5.5 0 0 1-.4 0 37 37 0 0 1-8.5-5.2 24.7 24.7 0 0 1-4.8-5.3 16.5 16.5 0 0 1-2.4-5.2l-.7-3.3-.5-3.4a36.6 36.6 0 0 1-.2-5.3l.2-4.1.2-2.6.4-3h.3l2-.1h2.4a4.5 4.5 0 0 0 2.5-1 7.9 7.9 0 0 0 2.4-3.4.6.6 0 0 1 .6-.5c.6 0 1.1-.2 1.7-.3l3.1-.3a13.4 13.4 0 0 1 1.6-.1 25.3 25.3 0 0 1 4.6.4l1.8.4a.3.3 0 0 1 .2.1l.8 1.7zm5 1.2l3.5.3 2.6.5a.4.4 0 0 0 .1 0c.4 0 .5.2.6.5a7.5 7.5 0 0 0 3 3.7 4.6 4.6 0 0 0 2.3.6h4a.2.2 0 0 1 .3.3l.4 3.7a122.6 122.6 0 0 1 .2 10.6 32.4 32.4 0 0 1-1.4 8 17.6 17.6 0 0 1-1 2.1 19.8 19.8 0 0 1-1.1 2.2A17.8 17.8 0 0 1 41 39l-1.6 1.7-1.2 1-1.3 1a35.5 35.5 0 0 1-4.5 3L30 46.8a.5.5 0 0 1-.6 0l-2.8-1.4a33.3 33.3 0 0 1-4.5-3 25.3 25.3 0 0 1-6.3-6.7 16.1 16.1 0 0 1-2-4.4l-.6-3-.4-2.2a46.7 46.7 0 0 1-.3-8.5c0-1.5.1-2.9.3-4.3L13 11l.1-1.2a.3.3 0 0 1 .4-.3h3.9a5 5 0 0 0 4-2A8.7 8.7 0 0 0 22.8 5a.3.3 0 0 1 .4-.3 5.9 5.9 0 0 0 1-.1A14.4 14.4 0 0 1 27 4l2.8-.2zm14 16.7l-.2-1.8a55.6 55.6 0 0 0-.4-5.8.2.2 0 0 0-.3-.2h-2a9.7 9.7 0 0 1-1.8-.3 6.3 6.3 0 0 1-2.6-1.5 9 9 0 0 1-2-2.7.5.5 0 0 0-.2-.2 20.2 20.2 0 0 0-2-.3 23.5 23.5 0 0 0-3-.2 17.2 17.2 0 0 0-4.1.5.6.6 0 0 0-.4.3L24 9.6a7.8 7.8 0 0 1-2 2 5.6 5.6 0 0 1-2.7 1h-2.7c-.3 0-.4.1-.4.5l-.2 1.8-.2 3.8v4.2a24.9 24.9 0 0 0 .5 4.2l.8 3.5a12.9 12.9 0 0 0 1.6 3.5 21.2 21.2 0 0 0 5.2 5.5 32.9 32.9 0 0 0 5.6 3.5.4.4 0 0 0 .4 0 34 34 0 0 0 4.4-2.6 24.5 24.5 0 0 0 5.2-4.7 14.5 14.5 0 0 0 2.8-5l1-4.2a21.5 21.5 0 0 0 .2-2.5l.2-3.6zM30.5 32.2h-2.2a1.5 1.5 0 0 1-1.4-1.5v-3.8c0-.3 0-.4-.3-.4h-3.8a1.5 1.5 0 0 1-1.5-.9 1.8 1.8 0 0 1 0-.7v-2.2a1.6 1.6 0 0 1 1.6-1.6h3.8a1.8 1.8 0 0 0 .2 0v-.3V17a1.5 1.5 0 0 1 1-1.5 1.3 1.3 0 0 1 .4 0h2.4a1.6 1.6 0 0 1 1.6 1.6v3.7a.3.3 0 0 0 .3.3h3.8a1.6 1.6 0 0 1 1.6 1.6v2.2a1.6 1.6 0 0 1-1.6 1.7h-3.8c-.2 0-.3 0-.3.3v3.4a2.7 2.7 0 0 1 0 .8 2.6 2.6 0 0 1-.5.8 9.3 9.3 0 0 1-1.3.3z"/></symbol>
  <symbol id="why2" viewBox="0 0 59 53"><path fill="#00b7e8" fill-rule="evenodd" d="M21 44.6c-.3 0-.5.2-.8.3a2.7 2.7 0 0 1-3.8-1.9A2.6 2.6 0 0 1 17 41c0-.2.1-.3.3-.5l-1.2.5a3.3 3.3 0 0 1-1.1.3 2.8 2.8 0 0 1-2-1 2.2 2.2 0 0 1-.6-2 14.2 14.2 0 0 1 .6-1.6c-.3 0-.5.2-.7.3a2.8 2.8 0 0 1-2.3.1 2.7 2.7 0 0 1-1.5-3.6l.5-.9a.2.2 0 0 0 0-.3l-3-2.8-.8-.9L4 27.2A14.8 14.8 0 0 1 2 24c-.4-1-.9-2.1-1.2-3.2a9.3 9.3 0 0 1-.5-2L0 15.2a12.6 12.6 0 0 1 .6-3.7 14.2 14.2 0 0 1 1.9-4.2 17.7 17.7 0 0 1 7.6-6.2 13.2 13.2 0 0 1 3.4-1L15 0h1.5c.6 0 1.3 0 1.9.2a12.1 12.1 0 0 1 2 .4 18.3 18.3 0 0 1 3.8 1.5l3.3 2 2.3 1.8a.3.3 0 0 0 .5 0l2.3-2.3a17.8 17.8 0 0 1 3.3-2A14.3 14.3 0 0 1 39.5.4a16.2 16.2 0 0 1 5-.2 16.7 16.7 0 0 1 3.2.6 14.8 14.8 0 0 1 3.8 1.8A17.7 17.7 0 0 1 56.7 8a14.8 14.8 0 0 1 2 4.9A13.4 13.4 0 0 1 59 17a17.6 17.6 0 0 1-1.2 4.3 17.4 17.4 0 0 1-2.2 4l-2.3 2.9a.6.6 0 0 0-.2.5 30.8 30.8 0 0 1 .5 3.2 4.4 4.4 0 0 1-1.4 3.6 5.9 5.9 0 0 1-2.6 1.3 1.6 1.6 0 0 0-1.2 1 7 7 0 0 0-.2.8 4.3 4.3 0 0 1-2.7 3 20.2 20.2 0 0 1-2.1.8.3.3 0 0 0-.3.3 5.2 5.2 0 0 1-1.9 3.6 5.5 5.5 0 0 1-2.9 1.2.4.4 0 0 0-.5.5 5.2 5.2 0 0 1-1.4 3.2 5 5 0 0 1-2.9 1.6 5 5 0 0 1-3.7-.8 22.2 22.2 0 0 1-2-1.8l-2.2-2a.5.5 0 0 0-.4 0c-.5.3-1 .6-1.5.7a2.1 2.1 0 0 1-2-.4 2.6 2.6 0 0 1-.8-3.5 5 5 0 0 0 .2-.5zm16.6-6.3zm-19-22l.8-.8 7.1-7 1-1a1.4 1.4 0 0 0-.2-.2l-1.7-.8-3.3-1.8a16.1 16.1 0 0 0-4.6-1.4 13 13 0 0 0-4.1 0 10.3 10.3 0 0 0-3.7 1.4L8 5.9a9.7 9.7 0 0 0-.9.9l-.6.6a13 13 0 0 0-2.8 5.3 16.4 16.4 0 0 0-.5 3.5 13.8 13.8 0 0 0 .5 3.6 12.7 12.7 0 0 0 1.8 4.1 17 17 0 0 0 2.8 3.5L11 30a.4.4 0 0 0 .5 0 3 3 0 0 1 2.7-.4 3 3 0 0 1 1.8 2.3 5.2 5.2 0 0 1-.6 2.1l1.2-.4a2.6 2.6 0 0 1 3.4 3.4l-.3.9.3-.1a8.4 8.4 0 0 1 1.4-.4 2.6 2.6 0 0 1 2.2 1 2.2 2.2 0 0 1 .5 2.2l-.5 1.4a9 9 0 0 1 1-.4 3.3 3.3 0 0 1 1.2-.3 2.6 2.6 0 0 1 2.1 1.3 2.2 2.2 0 0 1 .4 2 7.9 7.9 0 0 1-.6 1.2.4.4 0 0 0 0 .7 6 6 0 0 1 .6.5l2.4 2.2a2.5 2.5 0 0 0 2.6.7 2.2 2.2 0 0 0 1.4-1.8 2.9 2.9 0 0 0-1-2.2l-3-2.8a2.6 2.6 0 0 1-.6-1 1.4 1.4 0 0 1 .8-1.6 1.2 1.2 0 0 1 1.3 0 5.7 5.7 0 0 1 .7.6l3.2 3a2.5 2.5 0 0 0 2.1.6 2.5 2.5 0 0 0 1.7-1.4 2.4 2.4 0 0 0-.5-2.3L37 38.5l-1.1-1a1.3 1.3 0 0 1-.3-1.5 1.7 1.7 0 0 1 .9-1 1.5 1.5 0 0 1 .9 0 3.9 3.9 0 0 1 1.5 1.2l.4.5a3 3 0 0 1 .3.2l1.8 1.7a2.4 2.4 0 0 0 2.1.8 2 2 0 0 0 1.8-1.3 2 2 0 0 0-.4-2.3l-2.5-2.5a14.4 14.4 0 0 1-1.5-1.5 1.1 1.1 0 0 1 .8-1.7 2.2 2.2 0 0 1 2 .4l2.3 2.1a5 5 0 0 0 2 1.4 2.3 2.3 0 0 0 2.5-1 2.3 2.3 0 0 0-.5-2.7L46.4 27 43 23.6l-4.3-4a10.6 10.6 0 0 0-4.2-2.7 7.7 7.7 0 0 0-4.5 0 11.8 11.8 0 0 0-3.8 2l-3 2.2-3 2.2-2.4 1.8a2.9 2.9 0 0 1-2.9.4 2.7 2.7 0 0 1-1-4.4l3-3 1.6-1.7zm24.2 17.2zm.2-.3zm-5.7 4.6z"/></symbol>
  <symbol id="why3" viewBox="0 0 46.1 42.9"><path fill="#00b7e8" fill-rule="evenodd" d="M46 24v10.3a6.6 6.6 0 0 1-4 6.4 8.5 8.5 0 0 1-2 .5.5.5 0 0 0-.5.6 1.1 1.1 0 0 1-1.2 1.1H34a1.1 1.1 0 0 1-1.2-1.1.4.4 0 0 0-.6-.5H13.7a.4.4 0 0 0-.5.4A1.1 1.1 0 0 1 12 43H7.8a1.1 1.1 0 0 1-1.2-1 .5.5 0 0 0-.6-.7 6.5 6.5 0 0 1-4.6-2.6A6 6 0 0 1 0 34.8V13a6.5 6.5 0 0 1 5-6.3 6.4 6.4 0 0 1 1.7-.2h7.5c.5 0 .6-.2.6-.7a5.7 5.7 0 0 1 .8-3.7 4.7 4.7 0 0 1 4-2.2h6.9a5 5 0 0 1 4.8 4.9V6a.4.4 0 0 0 .5.6h7.8a6 6 0 0 1 5.1 2.6 6.5 6.5 0 0 1 1.4 4.1V24zm-8.5-3.2l-.2-.2-5.7-5.7a.3.3 0 0 0-.5 0l-.8.8-2.5 2.6.8.8 5 5a.5.5 0 0 0 .5 0l3.4-3.3zM16.8 34l6.4-3.8a.6.6 0 0 0 0-.5l-.8-1.5-1.3-2.2-3 1.8-3.2 1.9c-.3.2-.5.3-.2.7l.7 1.3 1.4 2.3zm-3.6-14.2a3.3 3.3 0 0 0 3.3-3.3 3.4 3.4 0 0 0-3.3-3.3 3.3 3.3 0 0 0-3.3 3.3 3.2 3.2 0 0 0 3.3 3.3zM23 6.6h4.4A.4.4 0 0 0 28 6V4.8a1.5 1.5 0 0 0-1.5-1.4h-6.7a1.5 1.5 0 0 0-1.5 1.4V6c0 .5 0 .6.5.6H23z"/></symbol>
  <symbol id="upload" viewBox="0 0 48 48"><path d="M47.2 24.4L26.9 43.8c-3.1 3-7.2 4.2-11.2 4.2-4 0-8-1.5-11.2-4.2-6-5.7-6-15.3 0-21L25.1 3.2C27.1 1.3 30 0 32.9 0s5.8 1.1 7.8 3.2a10.1 10.1 0 0 1 0 15.1L20.2 37.8a6.8 6.8 0 0 1-9.4 0A6.5 6.5 0 0 1 9 33.3a6 6 0 0 1 2-4.5l19-18.1c.9-.8 2.2-.8 3.1 0 .9.8.9 2.1 0 3l-19 18.1c-.4.4-.7.8-.7 1.5 0 .6.2 1.1.7 1.5.9.8 2.2.8 3.1 0l20.6-19.5a5.9 5.9 0 0 0 0-8.9 7.3 7.3 0 0 0-9.4 0L7.9 25.9a10.1 10.1 0 0 0 0 15.1 11.6 11.6 0 0 0 15.9 0l20.6-19.5c.9-.8 2.2-.8 3.1 0 .8.8.6 2.1-.3 2.9z"/></symbol>
  <symbol id="calendar" viewBox="0 0 47 48"><path fill-rule="evenodd" d="M17 26.5a1 1 0 0 0-1.1-1.1H12a1 1 0 0 0-1.1 1v3.9a1 1 0 0 0 1 1H16a1 1 0 0 0 1-1v-3.8zm9.5 0a1 1 0 0 0-1.1-1.1h-3.8a1 1 0 0 0-1 1v3.9a1 1 0 0 0 1 1h3.8a1 1 0 0 0 1-1v-3.8zm9.5 0a1 1 0 0 0-1-1.1H31a1 1 0 0 0-1 1v3.9a1 1 0 0 0 1 1H35a1 1 0 0 0 1.1-1v-3.8zM17 36a1 1 0 0 0-1.1-1.1H12a1 1 0 0 0-1.1 1v3.9a1 1 0 0 0 1 1H16a1 1 0 0 0 1-1V36zm9.5 0a1 1 0 0 0-1.1-1.1h-3.8a1 1 0 0 0-1 1v3.9a1 1 0 0 0 1 1h3.8a1 1 0 0 0 1-1V36zm9.5 0a1 1 0 0 0-1-1.1H31a1 1 0 0 0-1 1v3.9a1 1 0 0 0 1 1H35a1 1 0 0 0 1.1-1V36zm6.8-30.7v5.8a4.7 4.7 0 0 1-4.7 4.8h-3a4.8 4.8 0 0 1-4.8-4.8V5.3H16.7v5.8A4.8 4.8 0 0 1 12 16H9A4.7 4.7 0 0 1 4.2 11V5.3A4.3 4.3 0 0 0 0 9.6v34A4.3 4.3 0 0 0 4.3 48h38.4a4.3 4.3 0 0 0 4.3-4.3v-34a4.3 4.3 0 0 0-4.2-4.4zm-1.4 36.2a1.9 1.9 0 0 1-1.8 2H7.4a1.9 1.9 0 0 1-1.9-2V24A1.9 1.9 0 0 1 7.4 22h32.2a1.9 1.9 0 0 1 1.8 1.9v17.5zM9 12.8h3a1.6 1.6 0 0 0 1.6-1.7V1.6A1.6 1.6 0 0 0 12 0h-3a1.6 1.6 0 0 0-1.6 1.6v9.6a1.6 1.6 0 0 0 1.6 1.6zm26.1 0h3a1.6 1.6 0 0 0 1.6-1.7V1.6A1.6 1.6 0 0 0 38 0h-3a1.6 1.6 0 0 0-1.6 1.6v9.5a1.6 1.6 0 0 0 1.6 1.7z"/></symbol>
  <symbol id="done" viewBox="0 0 48 48"><path d="M47.2 11.2L17.9 40.5c-.5.5-1.1.8-1.9.8s-1.3-.3-1.9-.8L.8 27.2c-1.1-1.1-1.1-2.7 0-3.7 1.1-1.1 2.7-1.1 3.7 0L16 34.9 43.5 7.5c1.1-1.1 2.7-1.1 3.7 0 1.1 1 1.1 2.6 0 3.7z"/></symbol>
  <symbol id="call" viewBox="0 0 48 48"><path fill-rule="evenodd" d="M24 0a24 24 0 1 0 24 24A24 24 0 0 0 24 0zm.5 11.6h.8c7.2.5 10.4 5.1 10.8 11.3a2.3 2.3 0 0 1-.1 1.2.6.6 0 0 1-.5.1c-.6 0-.6-.4-.6-1V23 23c-.8-6.2-3.6-9.5-9.9-10-.4 0-1.2-.1-1.2-.6a.6.6 0 0 1 .7-.7zM26 16h-.4a1.2 1.2 0 0 1-.8-.3.6.6 0 0 1 0-.5.5.5 0 0 1 .6-.5c4.7.4 7.4 3 7.6 8a.4.4 0 0 1-.4.5 1.3 1.3 0 0 1-.2 0c-.4 0-.5-.3-.5-.7v-.2-.3c-.7-3.8-2-5.1-5.9-6zm3.9 6.2a.6.6 0 0 1-.3 0 .5.5 0 0 1-.5-.1.8.8 0 0 1-.1-.5 2.8 2.8 0 0 0-2.6-2.7 1 1 0 0 1-.7-.3.5.5 0 0 1 0-.5.8.8 0 0 1 .9-.4 4 4 0 0 1 2.4 1.2 3.6 3.6 0 0 1 1.2 2.4 1 1 0 0 1-.3.9zm4.9 12.7a5.5 5.5 0 0 1-3 1.5 2.3 2.3 0 0 1-.2 0 6 6 0 0 1-2.5-.7l-.4-.2-3.2-1.7a31.4 31.4 0 0 1-12-12.5l-.1-.2a17.8 17.8 0 0 1-1.6-3.5 4.1 4.1 0 0 1 2-4.8 4.3 4.3 0 0 1 2-.7 1.8 1.8 0 0 1 1 .2 6.1 6.1 0 0 1 1.4 1.4 13.6 13.6 0 0 1 2.7 4 1.8 1.8 0 0 1-.7 2.2l-.3.2a3 3 0 0 0-1 1 2.1 2.1 0 0 0-.2 1.5 8.1 8.1 0 0 0 1.7 3.1 11.3 11.3 0 0 0 2.4 2.3 8.3 8.3 0 0 0 3 1.5 2.1 2.1 0 0 0 .4 0 1.8 1.8 0 0 0 1.2-.4 3.6 3.6 0 0 0 .6-.7 4 4 0 0 1 .5-.6 2.2 2.2 0 0 1 1.5-.6 2.8 2.8 0 0 1 1.1.3 8 8 0 0 1 1.4.8l.3.2 1.6 1.2.4.3c.8.6 1.6 1.2 1.5 2.1a4.5 4.5 0 0 1-1.5 2.8z"/></symbol>
  <symbol id="chat" viewBox="0 0 48 48"><path fill-rule="evenodd" d="M24 48a24 24 0 1 1 24-24 24 24 0 0 1-24 24zm4.5-37.2a13.8 13.8 0 0 0-15.1 4.7 13.4 13.4 0 0 0-1.7 13.2l.5 1.2a2.8 2.8 0 0 1 .4.7q0 .3-.2.5L10.1 38l4.1-1.3 2.6-.9.8-.2a1 1 0 0 1 .4.1l.6.3A13.8 13.8 0 0 0 35 32a13.5 13.5 0 0 0 2.1-4 14.1 14.1 0 0 0 .8-4.7 13.6 13.6 0 0 0-9.4-12.5zm3.7 21a11.5 11.5 0 0 1-7.5 3.2h-.4a11.5 11.5 0 0 1-4.5-1l-1-.4-.5-.3a1.5 1.5 0 0 0-.3-.2l-.6.2-3.8 1.2 1.4-4.2a.8.8 0 0 0-.3-.4 11.2 11.2 0 0 1-1.6-8.7 11.5 11.5 0 0 1 20-4.8 11.3 11.3 0 0 1-.9 15.4zm-1-5a1.3 1.3 0 0 0-.7-.4l-1.4-.7a3 3 0 0 0-1.3-.5 1.1 1.1 0 0 0-.6.6l-.6.7a.7.7 0 0 1-.6.4 3.3 3.3 0 0 1-.7-.2 9 9 0 0 1-3.6-3c-.2-.3-.9-1-.5-1.4.4-.5 1.2-1 .9-1.8l-.6-1.4-.3-.8a1.5 1.5 0 0 0-.5-.8 1.3 1.3 0 0 0-.6 0 1.6 1.6 0 0 0-1 .2 3.6 3.6 0 0 0-1 1c-1.3 2.2.2 4.5 1.5 6.2a14.7 14.7 0 0 0 2.5 2.6 12.8 12.8 0 0 0 4.2 2.1 4.1 4.1 0 0 0 2 .4l.6-.2a3.6 3.6 0 0 0 1.7-1 2.6 2.6 0 0 0 .6-1.5 1.2 1.2 0 0 0 0-.5z"/></symbol>
  <symbol id="fb" viewBox="0 0 48 48"><path fill-rule="evenodd" d="M24 0a24 24 0 1 0 24 24A24 24 0 0 0 24 0zm6.3 14.6H30a10.3 10.3 0 0 0-2.4-.4 2 2 0 0 0-1.4.4 3 3 0 0 0-.5 2v1h4v5h-4v16h-5.9v-16h-3v-5h3v-1.2a10.5 10.5 0 0 1 .6-4 4.6 4.6 0 0 1 2-2.2 8 8 0 0 1 4-.8 15.2 15.2 0 0 1 4.5.7l.3.1z"/></symbol>
  <symbol id="od" viewBox="0 0 48.1 48"><path fill-rule="evenodd" d="M24 48a24 24 0 1 1 24-24 24 24 0 0 1-24 24zm0-39a7.6 7.6 0 1 0 7.6 7.7A7.6 7.6 0 0 0 24.1 9zm8.7 16a1.7 1.7 0 0 0-2-.8 3 3 0 0 0-1 .5 10.2 10.2 0 0 1-11.4 0 3.8 3.8 0 0 0-.5-.4 1.9 1.9 0 0 0-2.1 3l.6.6a11.7 11.7 0 0 0 6.3 2.2l-.4.4-5.2 5.2a1.9 1.9 0 0 0-.6 1.2 2 2 0 0 0 1.2 2 1.7 1.7 0 0 0 2-.4l4-4c.3-.4.5-.5.9 0l3.9 3.9a1.9 1.9 0 0 0 1.2.6 2 2 0 0 0 2-1.2 1.7 1.7 0 0 0-.5-2L26 30.6l-.4-.5a15.6 15.6 0 0 0 3.7-.8 9 9 0 0 0 3.3-2.1 1.7 1.7 0 0 0 .1-2.2zM24 20.3a3.7 3.7 0 1 1 3.6-3.7 3.7 3.7 0 0 1-3.6 3.7z"/></symbol>
  <symbol id="vk" viewBox="0 0 48 48"><path fill-rule="evenodd" d="M24 0a24 24 0 1 0 24 24A24 24 0 0 0 24 0zm14.1 30.3c.9.9 2.7 2.3 2.3 3.8-.3 1.3-2.2.8-4.2.9-2.1 0-3.4.1-4.8-1a15.5 15.5 0 0 1-1.5-1.7c-.6-.6-1.3-1.7-2.2-1.6-1.7 0-1.1 2.4-1.7 4-9.3 1.4-13-4.3-16.3-9.9a83.8 83.8 0 0 1-3.9-8.4h6.6L15 21a20.3 20.3 0 0 0 1.6 2.3c.4.6 1.1 1.8 2 1.7 1.2-.1 1.4-5 .6-6.7a2.6 2.6 0 0 0-1.8-1.1c.2-1.7 7.3-2 8.5-.8 1.6 1.9-1.2 7.1 1.1 8.6 3.2-1.6 6-8.7 6-8.7h7.6a24.1 24.1 0 0 1-2.5 5.5c-.7 1-3.1 3.2-3 4.9 0 1.3 2 2.5 3 3.5z"/></symbol>
  <symbol id="in" viewBox="0 0 48 48"><path fill-rule="evenodd" d="M24 48a24 24 0 1 1 24-24 24 24 0 0 1-24 24zm14.2-30A8.2 8.2 0 0 0 30 9.9H18a8.1 8.1 0 0 0-8 8V30a8 8 0 0 0 8 8h12a8.1 8.1 0 0 0 8.2-8V18zm-7.9 17.7H18.1a5.5 5.5 0 0 1-5.5-5.5V18a5.5 5.5 0 0 1 5.5-5.5h12.2A5.5 5.5 0 0 1 36 18v12.2a5.5 5.5 0 0 1-5.6 5.5zm-6.3-19a7.2 7.2 0 1 0 7.2 7.3 7.2 7.2 0 0 0-7.2-7.2zm7.5-2a1.8 1.8 0 1 0 1.7 1.7 1.8 1.8 0 0 0-1.7-1.7zm-7.5 14a4.7 4.7 0 1 1 4.7-4.7 4.7 4.7 0 0 1-4.7 4.7z"/></symbol>
</svg>